<svg width="169" height="32" viewBox="0 0 169 32" fill="none" xmlns="http://www.w3.org/2000/svg">
<g filter="url(#filter0_d_16_155)">
<path d="M41.5142 23.24C40.3942 23.24 39.4102 23.032 38.5622 22.616C37.7302 22.184 37.0822 21.584 36.6182 20.816C36.1542 20.032 35.9222 19.112 35.9222 18.056V14.744C35.9222 13.672 36.1542 12.752 36.6182 11.984C37.0822 11.216 37.7302 10.624 38.5622 10.208C39.4102 9.776 40.3942 9.56 41.5142 9.56C43.1782 9.56 44.5062 9.992 45.4982 10.856C46.4902 11.704 47.0102 12.864 47.0582 14.336H44.0582C44.0102 13.648 43.7622 13.12 43.3142 12.752C42.8822 12.368 42.2822 12.176 41.5142 12.176C40.7142 12.176 40.0822 12.4 39.6182 12.848C39.1542 13.28 38.9222 13.904 38.9222 14.72V18.056C38.9222 18.872 39.1542 19.504 39.6182 19.952C40.0822 20.4 40.7142 20.624 41.5142 20.624C42.2822 20.624 42.8822 20.44 43.3142 20.072C43.7622 19.688 44.0102 19.152 44.0582 18.464H47.0582C47.0102 19.936 46.4902 21.104 45.4982 21.968C44.5062 22.816 43.1782 23.24 41.5142 23.24ZM50.5528 23V5.48H53.5528V14.984H55.6408L58.8568 9.8H62.2168L58.2328 16.184L62.2888 23H58.8568L55.6408 17.528H53.5528V23H50.5528ZM70.2474 23.24C69.1274 23.24 68.1514 23.024 67.3194 22.592C66.4874 22.16 65.8394 21.56 65.3754 20.792C64.9274 20.008 64.7034 19.096 64.7034 18.056V14.744C64.7034 13.704 64.9274 12.8 65.3754 12.032C65.8394 11.248 66.4874 10.64 67.3194 10.208C68.1514 9.776 69.1274 9.56 70.2474 9.56C71.3514 9.56 72.3114 9.776 73.1274 10.208C73.9594 10.64 74.5994 11.248 75.0474 12.032C75.5114 12.8 75.7434 13.704 75.7434 14.744V17.12H67.6074V18.056C67.6074 18.984 67.8314 19.688 68.2794 20.168C68.7274 20.632 69.3914 20.864 70.2714 20.864C70.9434 20.864 71.4874 20.752 71.9034 20.528C72.3194 20.288 72.5834 19.944 72.6954 19.496H75.6474C75.4234 20.632 74.8154 21.544 73.8234 22.232C72.8474 22.904 71.6554 23.24 70.2474 23.24ZM72.8394 15.44V14.72C72.8394 13.808 72.6234 13.112 72.1914 12.632C71.7594 12.136 71.1114 11.888 70.2474 11.888C69.3834 11.888 68.7274 12.136 68.2794 12.632C67.8314 13.128 67.6074 13.832 67.6074 14.744V15.248L73.0554 15.2L72.8394 15.44ZM86.0541 23C84.7901 23 83.7981 22.648 83.0781 21.944C82.3741 21.24 82.0221 20.272 82.0221 19.04V12.512H78.4461V9.8H82.0221V6.08H85.0461V9.8H90.1101V12.512H85.0461V19.04C85.0461 19.872 85.4541 20.288 86.2701 20.288H89.8701V23H86.0541ZM99.0047 23.24C98.3167 23.24 97.7647 23.04 97.3487 22.64C96.9487 22.24 96.7487 21.696 96.7487 21.008C96.7487 20.32 96.9487 19.776 97.3487 19.376C97.7647 18.96 98.3167 18.752 99.0047 18.752C99.6927 18.752 100.237 18.96 100.637 19.376C101.053 19.776 101.261 20.32 101.261 21.008C101.261 21.696 101.053 22.24 100.637 22.64C100.237 23.04 99.6927 23.24 99.0047 23.24ZM112.891 23.216C111.883 23.216 111.003 23.056 110.251 22.736C109.499 22.416 108.907 21.976 108.475 21.416C108.059 20.84 107.835 20.168 107.803 19.4H110.803C110.835 19.816 111.035 20.152 111.403 20.408C111.787 20.664 112.283 20.792 112.891 20.792H113.947C114.683 20.792 115.235 20.648 115.603 20.36C115.971 20.072 116.155 19.68 116.155 19.184C116.155 18.72 115.987 18.36 115.651 18.104C115.331 17.832 114.827 17.656 114.139 17.576L112.507 17.336C111.003 17.128 109.899 16.728 109.195 16.136C108.491 15.544 108.139 14.656 108.139 13.472C108.139 12.24 108.555 11.288 109.387 10.616C110.219 9.928 111.443 9.584 113.059 9.584H113.971C115.443 9.584 116.619 9.912 117.499 10.568C118.379 11.224 118.851 12.104 118.915 13.208H115.915C115.867 12.856 115.667 12.568 115.315 12.344C114.979 12.12 114.531 12.008 113.971 12.008H113.059C112.371 12.008 111.867 12.136 111.547 12.392C111.243 12.632 111.091 12.992 111.091 13.472C111.091 13.92 111.227 14.256 111.499 14.48C111.771 14.688 112.211 14.84 112.819 14.936L114.523 15.176C116.091 15.4 117.243 15.824 117.979 16.448C118.731 17.056 119.107 17.96 119.107 19.16C119.107 20.44 118.667 21.44 117.787 22.16C116.923 22.864 115.643 23.216 113.947 23.216H112.891ZM127.81 23.24C126.69 23.24 125.714 23.024 124.882 22.592C124.05 22.16 123.402 21.56 122.938 20.792C122.49 20.008 122.266 19.096 122.266 18.056V14.744C122.266 13.704 122.49 12.8 122.938 12.032C123.402 11.248 124.05 10.64 124.882 10.208C125.714 9.776 126.69 9.56 127.81 9.56C128.914 9.56 129.874 9.776 130.69 10.208C131.522 10.64 132.162 11.248 132.61 12.032C133.074 12.8 133.306 13.704 133.306 14.744V17.12H125.17V18.056C125.17 18.984 125.394 19.688 125.842 20.168C126.29 20.632 126.954 20.864 127.834 20.864C128.506 20.864 129.05 20.752 129.466 20.528C129.882 20.288 130.146 19.944 130.258 19.496H133.21C132.986 20.632 132.378 21.544 131.386 22.232C130.41 22.904 129.218 23.24 127.81 23.24ZM130.402 15.44V14.72C130.402 13.808 130.186 13.112 129.754 12.632C129.322 12.136 128.674 11.888 127.81 11.888C126.946 11.888 126.29 12.136 125.842 12.632C125.394 13.128 125.17 13.832 125.17 14.744V15.248L130.618 15.2L130.402 15.44ZM142.249 23.24C141.129 23.24 140.145 23.032 139.297 22.616C138.465 22.184 137.817 21.584 137.353 20.816C136.889 20.032 136.657 19.112 136.657 18.056V14.744C136.657 13.672 136.889 12.752 137.353 11.984C137.817 11.216 138.465 10.624 139.297 10.208C140.145 9.776 141.129 9.56 142.249 9.56C143.913 9.56 145.241 9.992 146.233 10.856C147.225 11.704 147.745 12.864 147.793 14.336H144.793C144.745 13.648 144.497 13.12 144.049 12.752C143.617 12.368 143.017 12.176 142.249 12.176C141.449 12.176 140.817 12.4 140.353 12.848C139.889 13.28 139.657 13.904 139.657 14.72V18.056C139.657 18.872 139.889 19.504 140.353 19.952C140.817 20.4 141.449 20.624 142.249 20.624C143.017 20.624 143.617 20.44 144.049 20.072C144.497 19.688 144.745 19.152 144.793 18.464H147.793C147.745 19.936 147.225 21.104 146.233 21.968C145.241 22.816 143.913 23.24 142.249 23.24ZM158.007 23C156.743 23 155.751 22.648 155.031 21.944C154.327 21.24 153.975 20.272 153.975 19.04V12.512H150.399V9.8H153.975V6.08H156.999V9.8H162.063V12.512H156.999V19.04C156.999 19.872 157.407 20.288 158.223 20.288H161.823V23H158.007Z" fill="white"/>
<path d="M25.4611 15.1706C23.1683 15.1706 21.303 13.4165 21.303 11.2604C21.303 9.10427 23.1683 7.35016 25.4611 7.35016C27.7538 7.35016 29.6192 9.10427 29.6192 11.2604C29.6192 13.4165 27.7538 15.1706 25.4611 15.1706ZM25.4611 8.33817C23.7837 8.33817 22.419 9.64905 22.419 11.2604C22.419 12.8717 23.7837 14.1826 25.4611 14.1826C27.1384 14.1826 28.5031 12.8717 28.5031 11.2604C28.5031 9.64905 27.1384 8.33817 25.4611 8.33817Z" fill="#00BFA6"/>
<path d="M25.4703 15.0774C23.1724 15.0774 21.303 13.2656 21.303 11.0387C21.303 8.81173 23.1724 7 25.4703 7C27.7681 7 29.6376 8.81173 29.6376 11.0387C29.6376 13.2656 27.7681 15.0774 25.4703 15.0774ZM25.4703 8.02047C23.7892 8.02047 22.4215 9.37441 22.4215 11.0387C22.4215 12.7029 23.7892 14.0569 25.4703 14.0569C27.1514 14.0569 28.519 12.7029 28.519 11.0387C28.519 9.37441 27.1514 8.02047 25.4703 8.02047Z" fill="#00BFA6"/>
<path d="M29.5177 23H21.6252C20.9292 22.9993 20.2619 22.7468 19.7698 22.2978C19.2776 21.8488 19.0008 21.24 19 20.605V13.5421C19.0005 13.1074 19.1901 12.6906 19.527 12.3832C19.8639 12.0758 20.3207 11.9029 20.7972 11.9024H30.3456C30.8221 11.9029 31.2789 12.0758 31.6159 12.3832C31.9528 12.6906 32.1423 13.1074 32.1429 13.5421V20.605C32.1421 21.24 31.8652 21.8488 31.3731 22.2978C30.881 22.7468 30.2137 22.9993 29.5177 23V23Z" fill="white"/>
<path d="M27.0657 16.5749C27.0659 16.3254 26.9932 16.0805 26.8551 15.8652C26.7171 15.6499 26.5186 15.4721 26.2802 15.3501C26.0417 15.228 25.7719 15.1662 25.4986 15.1709C25.2252 15.1756 24.9582 15.2467 24.725 15.3769C24.4918 15.5071 24.3008 15.6916 24.1718 15.9115C24.0427 16.1314 23.9803 16.3787 23.9908 16.628C24.0014 16.8772 24.0846 17.1194 24.2318 17.3295C24.3791 17.5397 24.5851 17.7102 24.8286 17.8236V20.0189H26.2268V17.8236C26.4792 17.7062 26.6911 17.5275 26.8392 17.3071C26.9872 17.0868 27.0656 16.8333 27.0657 16.5749V16.5749Z" fill="white"/>
<path d="M27.0657 16.5749C27.0659 16.3254 26.9932 16.0805 26.8551 15.8652C26.7171 15.6499 26.5186 15.4721 26.2802 15.3501C26.0417 15.228 25.7719 15.1662 25.4986 15.1709C25.2252 15.1756 24.9582 15.2467 24.725 15.3769C24.4918 15.5071 24.3008 15.6916 24.1718 15.9115C24.0427 16.1314 23.9803 16.3787 23.9908 16.628C24.0014 16.8772 24.0846 17.1194 24.2318 17.3295C24.3791 17.5397 24.5851 17.7102 24.8286 17.8236V20.0189H26.2268V17.8236C26.4792 17.7062 26.6911 17.5275 26.8392 17.3071C26.9872 17.0868 27.0656 16.8333 27.0657 16.5749V16.5749Z" fill="#2F2E41"/>
<path d="M4.65647 23V5.48H10.2005C11.3685 5.48 12.3765 5.696 13.2245 6.128C14.0885 6.56 14.7605 7.168 15.2405 7.952C15.7205 8.72 15.9605 9.632 15.9605 10.688C15.9605 11.84 15.6645 12.856 15.0725 13.736C14.4965 14.616 13.7125 15.24 12.7205 15.608L16.2005 23H12.8405L9.79247 16.04H7.65647V23H4.65647ZM7.65647 13.4H10.2005C11.0485 13.4 11.7125 13.168 12.1925 12.704C12.6725 12.24 12.9125 11.6 12.9125 10.784C12.9125 9.952 12.6725 9.304 12.1925 8.84C11.7125 8.36 11.0485 8.12 10.2005 8.12H7.65647V13.4Z" fill="white"/>
</g>
<defs>
<filter id="filter0_d_16_155" x="0.656494" y="5.47998" width="165.407" height="25.76" filterUnits="userSpaceOnUse" color-interpolation-filters="sRGB">
<feFlood flood-opacity="0" result="BackgroundImageFix"/>
<feColorMatrix in="SourceAlpha" type="matrix" values="0 0 0 0 0 0 0 0 0 0 0 0 0 0 0 0 0 0 127 0" result="hardAlpha"/>
<feOffset dy="4"/>
<feGaussianBlur stdDeviation="2"/>
<feComposite in2="hardAlpha" operator="out"/>
<feColorMatrix type="matrix" values="0 0 0 0 0 0 0 0 0 0 0 0 0 0 0 0 0 0 0.25 0"/>
<feBlend mode="normal" in2="BackgroundImageFix" result="effect1_dropShadow_16_155"/>
<feBlend mode="normal" in="SourceGraphic" in2="effect1_dropShadow_16_155" result="shape"/>
</filter>
</defs>
</svg>
